<?xml version="1.0" standalone="no"?>
<!DOCTYPE svg PUBLIC "-//W3C//DTD SVG 20010904//EN"
 "http://www.w3.org/TR/2001/REC-SVG-20010904/DTD/svg10.dtd">
<svg version="1.0" xmlns="http://www.w3.org/2000/svg"
 width="500.000000pt" height="172.000000pt" viewBox="0 0 500.000000 172.000000"
 preserveAspectRatio="xMidYMid meet">

<g transform="translate(0.000000,172.000000) scale(0.100000,-0.100000)"
fill="#000000" stroke="none">
<path d="M0 860 l0 -860 2500 0 2500 0 0 860 0 860 -2500 0 -2500 0 0 -860z
m2150 555 c0 -11 -11 -15 -39 -15 -61 0 -71 -7 -71 -51 l0 -39 50 0 c38 0 50
-4 50 -15 0 -11 -12 -15 -50 -15 l-50 0 0 -45 0 -45 55 0 c42 0 55 -3 55 -15
0 -12 -15 -15 -72 -15 l-73 0 3 135 3 135 70 0 c55 0 69 -3 69 -15z m257 -2
c3 -8 -14 -13 -54 -15 l-58 -3 -3 -42 -3 -42 47 -3 c67 -4 71 -28 5 -28 l-51
0 0 -60 c0 -45 -3 -60 -14 -60 -11 0 -15 19 -18 83 -2 45 -2 106 0 135 l3 53
71 -3 c44 -2 73 -8 75 -15z m212 8 c13 -3 33 -18 44 -33 24 -32 17 -69 -19
-103 l-25 -23 24 -39 c13 -21 27 -44 31 -50 5 -9 0 -13 -16 -13 -18 0 -30 13
-53 55 -43 80 -74 75 -70 -12 2 -36 -1 -43 -16 -43 -18 0 -19 10 -19 135 l0
135 48 -1 c26 -1 58 -4 71 -8z m311 -6 c0 -12 -13 -15 -55 -15 l-55 0 0 -45 0
-45 50 0 c38 0 50 -4 50 -15 0 -11 -12 -15 -50 -15 l-50 0 0 -45 0 -45 55 0
c42 0 55 -3 55 -15 0 -12 -15 -15 -75 -15 l-75 0 0 128 c0 71 3 132 7 135 3 4
37 7 75 7 54 0 68 -3 68 -15z m200 -85 l65 -99 5 97 c4 82 8 97 23 100 15 3
17 -8 17 -132 0 -127 -1 -136 -19 -136 -13 0 -40 32 -85 101 l-66 102 0 -102
c0 -94 -1 -101 -20 -101 -19 0 -20 7 -20 135 0 172 8 175 100 35z m-2262 -577
c-29 -29 -55 -53 -58 -53 -3 0 -4 134 -2 297 l2 297 53 54 52 53 3 -298 2
-297 -52 -53z m380 633 c55 -30 79 -115 48 -174 -8 -15 -31 -43 -51 -62 l-36
-35 10 28 c44 115 -58 209 -174 162 -28 -11 29 51 70 76 34 22 99 24 133 5z
m397 -265 l-55 -56 0 115 0 114 53 54 52 53 3 -113 3 -112 -56 -55z m525 -99
c0 -15 -6 -17 -35 -14 l-35 4 0 -121 c0 -114 -1 -121 -20 -121 -19 0 -20 7
-20 119 l0 119 -35 -2 c-27 -1 -35 2 -35 16 0 16 11 18 90 18 80 0 90 -2 90
-18z m130 -80 c0 -115 12 -142 64 -142 51 0 60 20 66 134 4 81 8 101 20 101
12 0 15 -19 15 -108 0 -107 -1 -109 -28 -133 -20 -17 -40 -24 -70 -24 -81 0
-102 35 -106 173 -2 82 2 97 25 97 11 0 14 -19 14 -98z m817 63 c28 -32 29
-46 5 -75 -18 -23 -18 -24 0 -42 27 -27 23 -72 -8 -97 -21 -16 -41 -21 -90
-21 l-64 0 0 136 0 137 67 -6 c57 -4 71 -9 90 -32z m600 24 c30 -11 73 -47 73
-61 0 -15 -37 -8 -54 11 -23 26 -64 32 -103 16 -39 -16 -53 -42 -53 -95 0 -94
111 -134 167 -61 24 31 15 41 -37 41 -38 0 -50 4 -50 15 0 12 14 15 70 15 69
0 70 0 70 -26 0 -64 -59 -114 -134 -114 -39 0 -52 6 -83 33 -31 29 -37 41 -40
88 -3 42 0 61 17 87 33 52 98 74 157 51z m349 -125 c24 -66 44 -122 44 -126 0
-5 -9 -8 -19 -8 -13 0 -21 9 -26 30 -6 29 -8 30 -65 30 -56 0 -58 -1 -69 -30
-6 -20 -17 -30 -30 -30 -20 0 -20 1 3 63 13 34 34 91 47 127 40 112 57 104
115 -56z m-2811 -153 l-55 -56 0 115 0 114 53 54 52 53 3 -113 3 -112 -56 -55z
m390 0 l-55 -56 0 115 0 114 53 54 52 53 3 -113 3 -112 -56 -55z m1016 179
c24 -55 47 -100 50 -100 3 0 26 45 50 100 37 83 48 100 67 100 22 0 22 -2 22
-130 0 -123 -1 -130 -20 -130 -18 0 -20 8 -22 92 l-3 93 -40 -93 c-25 -60 -44
-92 -55 -92 -9 0 -30 34 -55 93 l-40 92 -3 -92 c-2 -74 -6 -93 -17 -93 -12 0
-15 23 -15 130 0 120 1 130 18 130 14 0 30 -25 63 -100z m750 -32 c43 -117 45
-128 27 -128 -12 0 -23 11 -29 30 -11 29 -13 30 -69 30 -57 0 -59 -1 -65 -30
-5 -21 -13 -30 -26 -30 -25 0 -25 2 15 111 57 157 54 151 78 147 19 -2 30 -24
69 -130z m-1604 -406 c-1 -75 -3 -13 -3 138 0 151 2 213 3 138 2 -76 2 -200 0
-276z m-552 -111 l-55 -56 0 114 0 113 53 57 52 57 3 -115 3 -115 -56 -55z
m390 0 l-55 -56 0 114 0 113 53 57 52 57 3 -115 3 -115 -56 -55z m-725 167 l0
-112 -52 -53 c-29 -29 -55 -53 -58 -53 -3 0 -4 50 -4 111 l2 110 48 53 c27 30
52 54 57 55 4 1 7 -49 7 -111z m2893 35 c-331 -2 -875 -2 -1210 0 -334 1 -63
2 602 2 666 0 939 -1 608 -2z m-1790 -214 l13 -44 13 48 c8 26 17 47 22 47 5
0 14 -21 21 -47 l12 -48 14 48 c7 26 18 47 24 47 6 0 7 -8 3 -17 -3 -10 -11
-37 -18 -60 -14 -52 -32 -55 -41 -8 -4 19 -11 35 -16 35 -5 0 -12 -16 -16 -35
-9 -48 -27 -44 -42 10 -22 83 -12 104 11 24z m277 41 c0 -5 -9 -10 -20 -10
-11 0 -20 -7 -20 -15 0 -8 9 -15 20 -15 11 0 20 -4 20 -10 0 -5 -9 -10 -20
-10 -33 0 -26 -38 8 -43 22 -3 20 -4 -10 -6 l-38 -1 0 60 0 60 30 0 c17 0 30
-4 30 -10z m169 1 c9 -6 12 -18 8 -32 -3 -13 -1 -29 5 -36 16 -20 -9 -43 -48
-43 l-34 0 0 53 c0 30 3 57 7 60 9 10 45 8 62 -2z m318 -18 c31 -42 1 -93 -54
-93 l-33 0 0 61 0 62 37 -6 c21 -4 44 -14 50 -24z m173 17 c0 -5 -11 -10 -25
-10 -16 0 -25 -6 -25 -15 0 -14 12 -19 33 -16 4 0 7 -3 7 -9 0 -6 -9 -10 -21
-10 -29 0 -21 -32 11 -41 23 -6 22 -7 -7 -8 l-33 -1 0 60 0 60 30 0 c17 0 30
-4 30 -10z m154 4 c25 -10 19 -25 -8 -18 -37 9 -43 -15 -7 -29 35 -13 46 -33
30 -53 -14 -17 -55 -19 -64 -3 -11 16 3 23 19 10 16 -13 36 -7 36 10 0 6 -13
15 -30 20 -22 8 -30 17 -30 34 0 29 22 41 54 29z m136 -54 c0 -33 -4 -60 -10
-60 -11 0 -14 103 -3 113 12 12 13 8 13 -53z m191 40 c13 -10 19 -19 12 -20
-6 0 -15 5 -18 10 -11 18 -54 11 -65 -11 -9 -16 -8 -26 5 -45 18 -27 19 -28
46 -14 25 14 24 28 -3 33 -17 3 -14 5 10 6 22 1 32 -4 32 -13 0 -22 -29 -46
-55 -46 -53 0 -76 74 -33 104 29 21 41 20 69 -4z m171 -41 l17 -24 0 37 c1 20
6 40 11 43 6 4 10 -17 10 -54 0 -34 -4 -61 -9 -61 -5 0 -19 16 -31 35 -28 45
-38 44 -43 -2 -2 -24 -4 -13 -5 27 -1 71 0 71 50 -1z"/>
<path d="M2542 1387 c-7 -10 -9 -47 -3 -79 2 -13 76 -9 89 4 16 16 15 53 -2
67 -20 17 -73 21 -84 8z"/>
<path d="M3008 1003 c-14 -3 -18 -15 -18 -44 0 -39 0 -39 39 -39 57 0 91 41
58 68 -15 13 -55 20 -79 15z"/>
<path d="M2990 845 l0 -45 43 0 c46 0 60 7 69 31 12 32 -19 59 -68 59 l-44 0
0 -45z"/>
<path d="M3973 920 l-22 -60 45 0 c24 0 44 1 44 3 0 9 -34 103 -39 109 -3 4
-16 -20 -28 -52z"/>
<path d="M3326 946 c-9 -22 -19 -50 -22 -63 -6 -21 -3 -23 35 -23 47 0 47 3
22 75 l-18 50 -17 -39z"/>
<path d="M2420 385 c0 -11 7 -15 23 -13 12 2 22 8 22 13 0 6 -10 11 -22 13
-16 2 -23 -2 -23 -13z"/>
<path d="M2420 330 c0 -21 16 -26 39 -11 18 11 5 31 -20 31 -12 0 -19 -7 -19
-20z"/>
<path d="M2720 355 c0 -46 7 -53 41 -35 24 13 26 65 3 74 -36 14 -44 7 -44
-39z"/>
</g>
</svg>
